
        <svg xmlns="http://www.w3.org/2000/svg" xmlns:xlink="http://www.w3.org/1999/xlink" version="1.1" width="3162.2826615614044" height="1224.110558390068" viewBox="0 0 3162.2826615614044 1224.110558390068">
			
			<g transform="scale(8.114133078070228) translate(10, 10)">
				<defs id="SvgjsDefs2713"><linearGradient id="SvgjsLinearGradient2720"><stop id="SvgjsStop2721" stop-color="#834f2a" offset="0"/><stop id="SvgjsStop2722" stop-color="#dba173" offset="0.5"/><stop id="SvgjsStop2723" stop-color=" #834F2A" offset="1"/></linearGradient></defs><g id="SvgjsG2714" featureKey="symbolFeature-0" transform="matrix(1.4367755204897315,0,0,1.4367755204897315,-21.851182559020494,-5.0574286434281195)" fill="#fff"><path xmlns="http://www.w3.org/2000/svg" d="M77.1,7H23.6C19.1,7,16,9.8,16,14.2v39.1c0,4.4,3.1,8.7,7.6,8.7H49v6h-9.4c-0.9,0-1.7,0.5-1.7,1.5c0,0.9,0.8,1.5,1.7,1.5  h21.5c1,0,1.7-0.6,1.7-1.5c0-1-0.8-1.5-1.7-1.5H52v-6h25.1c4.4,0,7.9-4.3,7.9-8.7V14.2C85,9.8,81.5,7,77.1,7z M82,52.4  c0,2.5-2.1,4.6-4.6,4.6H23.6c-2.5,0-4.6-2.1-4.6-4.6V14.6c0-2.5,2.1-4.6,4.6-4.6h53.8c2.5,0,4.6,2.1,4.6,4.6V52.4z"/><path xmlns="http://www.w3.org/2000/svg" d="M74,77.2c1.4,0,2.7,0.8,3.4,2l4,7.2c1.5,2.6-0.4,5.8-3.4,5.8H21.4c-2.9,0-4.8-3.1-3.5-5.7l3.7-7.2c0.7-1.3,2-2.1,3.5-2.1H74   M74,74.9H25.1c-2.3,0-4.5,1.3-5.5,3.4l-3.7,7.2c-1,1.9-0.9,4.2,0.2,6.1c1.1,1.9,3.1,3,5.3,3H78c2.2,0,4.2-1.1,5.4-3.1  c1.1-1.9,1.2-4.2,0.1-6.2l-4-7.2C78.3,76.1,76.3,74.9,74,74.9L74,74.9z"/><g xmlns="http://www.w3.org/2000/svg"><path d="M71.9,82.1h-3.4c-0.6,0-1.1-0.5-1.1-1.1s0.5-1.1,1.1-1.1h3.4c0.6,0,1.1,0.5,1.1,1.1S72.5,82.1,71.9,82.1z M65,82.1h-3.4   c-0.6,0-1.1-0.5-1.1-1.1s0.5-1.1,1.1-1.1H65c0.6,0,1.1,0.5,1.1,1.1S65.6,82.1,65,82.1z M58.1,82.1h-3.4c-0.6,0-1.1-0.5-1.1-1.1   s0.5-1.1,1.1-1.1h3.4c0.6,0,1.1,0.5,1.1,1.1S58.7,82.1,58.1,82.1z M51.2,82.1h-3.4c-0.6,0-1.1-0.5-1.1-1.1s0.5-1.1,1.1-1.1h3.4   c0.6,0,1.1,0.5,1.1,1.1S51.8,82.1,51.2,82.1z M44.3,82.1h-3.4c-0.6,0-1.1-0.5-1.1-1.1s0.5-1.1,1.1-1.1h3.4c0.6,0,1.1,0.5,1.1,1.1   S44.9,82.1,44.3,82.1z M37.4,82.1H34c-0.6,0-1.1-0.5-1.1-1.1s0.5-1.1,1.1-1.1h3.4c0.6,0,1.1,0.5,1.1,1.1S38.1,82.1,37.4,82.1z    M30.5,82.1h-3.4c-0.6,0-1.1-0.5-1.1-1.1s0.5-1.1,1.1-1.1h3.4c0.6,0,1.1,0.5,1.1,1.1S31.2,82.1,30.5,82.1z"/></g><g xmlns="http://www.w3.org/2000/svg"><path d="M75.2,85.5h-3.4c-0.6,0-1.1-0.5-1.1-1.1s0.5-1.1,1.1-1.1h3.4c0.6,0,1.1,0.5,1.1,1.1S75.9,85.5,75.2,85.5z M68.3,85.5h-3.4   c-0.6,0-1.1-0.5-1.1-1.1s0.5-1.1,1.1-1.1h3.4c0.6,0,1.1,0.5,1.1,1.1S69,85.5,68.3,85.5z M61.4,85.5H58c-0.6,0-1.1-0.5-1.1-1.1   s0.5-1.1,1.1-1.1h3.4c0.6,0,1.1,0.5,1.1,1.1S62.1,85.5,61.4,85.5z M54.5,85.5h-3.4c-0.6,0-1.1-0.5-1.1-1.1s0.5-1.1,1.1-1.1h3.4   c0.6,0,1.1,0.5,1.1,1.1S55.2,85.5,54.5,85.5z M47.6,85.5h-3.4c-0.6,0-1.1-0.5-1.1-1.1s0.5-1.1,1.1-1.1h3.4c0.6,0,1.1,0.5,1.1,1.1   S48.3,85.5,47.6,85.5z M40.7,85.5h-3.4c-0.6,0-1.1-0.5-1.1-1.1s0.5-1.1,1.1-1.1h3.4c0.6,0,1.1,0.5,1.1,1.1S41.4,85.5,40.7,85.5z    M33.9,85.5h-3.4c-0.6,0-1.1-0.5-1.1-1.1s0.5-1.1,1.1-1.1h3.4c0.6,0,1.1,0.5,1.1,1.1S34.5,85.5,33.9,85.5z M27,85.5h-3.4   c-0.6,0-1.1-0.5-1.1-1.1s0.5-1.1,1.1-1.1H27c0.6,0,1.1,0.5,1.1,1.1S27.6,85.5,27,85.5z"/></g><g xmlns="http://www.w3.org/2000/svg"><path d="M75.2,89.6h-3.4c-0.6,0-1.1-0.5-1.1-1.1s0.5-1.1,1.1-1.1h3.4c0.6,0,1.1,0.5,1.1,1.1S75.9,89.6,75.2,89.6z M68.3,89.6h-3.4   c-0.6,0-1.1-0.5-1.1-1.1s0.5-1.1,1.1-1.1h3.4c0.6,0,1.1,0.5,1.1,1.1S69,89.6,68.3,89.6z M61.4,89.6H58c-0.6,0-1.1-0.5-1.1-1.1   s0.5-1.1,1.1-1.1h3.4c0.6,0,1.1,0.5,1.1,1.1S62.1,89.6,61.4,89.6z M54.5,89.6h-3.4c-0.6,0-1.1-0.5-1.1-1.1s0.5-1.1,1.1-1.1h3.4   c0.6,0,1.1,0.5,1.1,1.1S55.2,89.6,54.5,89.6z M47.6,89.6h-3.4c-0.6,0-1.1-0.5-1.1-1.1s0.5-1.1,1.1-1.1h3.4c0.6,0,1.1,0.5,1.1,1.1   S48.3,89.6,47.6,89.6z M40.7,89.6h-3.4c-0.6,0-1.1-0.5-1.1-1.1s0.5-1.1,1.1-1.1h3.4c0.6,0,1.1,0.5,1.1,1.1S41.4,89.6,40.7,89.6z    M33.9,89.6h-3.4c-0.6,0-1.1-0.5-1.1-1.1s0.5-1.1,1.1-1.1h3.4c0.6,0,1.1,0.5,1.1,1.1S34.5,89.6,33.9,89.6z M27,89.6h-3.4   c-0.6,0-1.1-0.5-1.1-1.1s0.5-1.1,1.1-1.1H27c0.6,0,1.1,0.5,1.1,1.1S27.6,89.6,27,89.6z"/></g><g xmlns="http://www.w3.org/2000/svg"><path d="M61.8,21.4c-0.1,0-0.3-0.1-0.4-0.2c-0.2-0.2-0.2-0.6,0-0.8l6.8-6.8c0.2-0.2,0.6-0.2,0.8,0c0.2,0.2,0.2,0.6,0,0.8l-6.8,6.8   C62,21.3,61.9,21.4,61.8,21.4z"/></g><g xmlns="http://www.w3.org/2000/svg"><path d="M69.8,28.3c-0.1,0-0.3-0.1-0.4-0.2c-0.2-0.2-0.2-0.6,0-0.8l6.8-6.8c0.2-0.2,0.6-0.2,0.8,0c0.2,0.2,0.2,0.6,0,0.8l-6.8,6.8   C70.1,28.2,69.9,28.3,69.8,28.3z"/></g><g xmlns="http://www.w3.org/2000/svg"><path d="M62.7,28c-0.1,0-0.3-0.1-0.4-0.2c-0.2-0.2-0.2-0.6,0-0.8l13.2-13.2c0.2-0.2,0.6-0.2,0.8,0c0.2,0.2,0.2,0.6,0,0.8L63.1,27.8   C63,27.9,62.9,28,62.7,28z"/></g></g><g id="SvgjsG2715" featureKey="nameFeature-0" transform="matrix(2.861196931488098,0,0,2.861196931488098,109.24189956489126,-34.88224126072635)" fill="#fff"><path d="M14.08 13.600000000000001 c2.72 0 4.76 0.76 6.12 2.24 c1.2 1.32 1.8 3.28 1.8 5.68 l0 10.6 c0 4.84 -2.8 7.88 -7.92 7.88 l-10 0 c-0.2 0 -0.32 -0.16 -0.32 -0.36 l0 -25.68 c0 -0.2 0.12 -0.36 0.32 -0.36 l10 0 z M16.76 30.92 l0 -8.2 c0 -2.52 -1.32 -4.12 -4.12 -4.12 l-3.6 0 l0 16.4 l3.6 0 c2.4 0 4.12 -1.56 4.12 -4.08 z M6.2 16.04 l0 21.52 c0 0.16 0.16 0.2 0.24 0.2 l6.52 0 c4.6 0 6.68 -2.76 6.68 -5.32 l0 -10.24 c0 -4.24 -2.24 -6.4 -6.8 -6.4 l-6.4 0 c-0.08 0 -0.24 0.04 -0.24 0.24 z M19.16 22.2 l0 10.24 c0 3.2 -3.2 4.88 -6.2 4.88 l-6.28 0 l0 -21 l6.16 0 c4.2 0 6.32 1.88 6.32 5.88 z M34 13.84 c0.04 -0.12 0.12 -0.24 0.28 -0.24 l4.96 0 c0.16 0 0.24 0.12 0.28 0.24 l6.92 25.72 c0.04 0.24 -0.12 0.44 -0.36 0.44 l-4.56 0 c-0.12 0 -0.24 -0.08 -0.28 -0.24 l-1.56 -5.6 l-5.84 0 l-1.52 5.6 c-0.04 0.16 -0.12 0.24 -0.28 0.24 l-4.6 0 c-0.24 0 -0.4 -0.2 -0.36 -0.44 z M35.120000000000005 29.2 l3.32 0 l-1.72 -6.04 z M41.28 31.560000000000002 l1.84 6 c0.08 0.24 0.52 0.2 0.4 -0.12 l-6.4 -21.28 c-0.12 -0.52 -0.8 -0.56 -0.92 0 l-6.2 21.28 c-0.12 0.28 0.32 0.4 0.44 0.16 l1.76 -6.04 l9.08 0 z M32.32 31.04 l4.36 -14.72 l4.44 14.72 l-8.8 0 z M61.04 23.8 c3.04 1.44 7 3.72 7 7.84 c0 1.2 -0.2 3.52 -1.52 5.48 c-1.48 2.2 -3.8 3.28 -7 3.28 c-3.4 0 -7.36 -1.64 -8.6 -5.36 c-0.04 -0.12 0 -0.24 0.12 -0.32 l3.68 -3.16 c0.16 -0.12 0.4 -0.12 0.52 0.08 c0.08 0.2 0.24 0.52 0.44 0.92 c0.6 1.24 2.04 2.48 3.64 2.48 c1.24 0 2.92 -0.68 2.92 -2.6 c0 -1.84 -2.52 -2.88 -4.08 -3.48 c-1.8 -0.72 -3.64 -1.64 -5.2 -3 c-1.64 -1.52 -2.44 -3.2 -2.44 -5.2 c0 -5 4.6 -7.52 8.96 -7.52 c3.44 0 6 1.8 7.68 5.36 c0.08 0.16 0 0.36 -0.12 0.44 l-3.56 2.48 c-0.16 0.08 -0.24 0.08 -0.4 -0.12 c-1.36 -1.96 -2.56 -2.88 -4.16 -2.88 c-0.84 0 -2.8 0.32 -2.8 1.8 c0 1.8 3.32 2.72 4.92 3.48 z M53.760000000000005 34.84 c1 2 3.76 3.16 6 3.16 c2.92 0 5.28 -2 5.6 -5.04 c0.4 -3.72 -2.52 -5.32 -5.4 -6.76 l-1.28 -0.56 c-2.96 -1.32 -5.12 -2.32 -5.12 -5.08 c0 -3.04 2.8 -4.44 5.56 -4.44 c2.52 0 3.84 1.48 4.52 2.4 c0.24 0.32 0.64 0.04 0.4 -0.28 c-0.68 -0.84 -2.12 -2.6 -4.92 -2.6 c-3.16 0 -6.04 1.56 -6.04 4.92 c0 3 2.4 4.16 5.44 5.56 l1.24 0.6 c3.96 1.88 5.4 3.64 5.08 6.2 c-0.6 4.08 -3.72 4.6 -5.08 4.6 c-3 0 -5 -1.8 -5.6 -2.92 c-0.2 -0.2 -0.48 0 -0.4 0.24 z M85.76 24 l0 -10.04 c0 -0.2 0.16 -0.36 0.36 -0.36 l4.56 0 c0.2 0 0.36 0.16 0.36 0.36 l0 25.68 c0 0.2 -0.16 0.36 -0.36 0.36 l-4.56 0 c-0.2 0 -0.36 -0.16 -0.36 -0.36 l0 -10.64 l-6.48 0 l0 10.64 c0 0.2 -0.16 0.36 -0.36 0.36 l-4.56 0 c-0.2 0 -0.32 -0.16 -0.32 -0.36 l0 -25.68 c0 -0.2 0.12 -0.36 0.32 -0.36 l4.56 0 c0.2 0 0.36 0.16 0.36 0.36 l0 10.04 l6.48 0 z M76.36 37.52 c0 0.32 0.52 0.28 0.52 0 l0 -10.72 l11.24 0 l0 10.72 c0 0.28 0.44 0.32 0.44 0 l0 -21.52 c0 -0.28 -0.44 -0.36 -0.44 0 l0 10.24 l-11.24 0 l0 -10.24 c0 -0.28 -0.52 -0.28 -0.52 0 l0 21.52 z"/></g><g id="SvgjsG2716" featureKey="sloganFeature-0" transform="matrix(1.5590122334176537,0,0,1.5590122334176537,118.13503260448944,90.67934067997984)" fill="#fff"><path d="M16.08 6.800000000000001 c0.12 0 0.2 0.1 0.16 0.22 l-3.44 12.86 c-0.02 0.08 -0.1 0.12 -0.18 0.12 l-2.2 0 c-0.08 0 -0.14 -0.04 -0.18 -0.12 l-1.36 -5.06 l-1.84 5.08 c-0.02 0.06 -0.06 0.1 -0.14 0.1 l-2.12 0 c-0.08 0 -0.14 -0.04 -0.16 -0.12 l-3.42 -12.88 c-0.02 -0.1 0.04 -0.2 0.18 -0.2 l2.3 0 c0.06 0 0.12 0.06 0.14 0.12 l2.22 8.48 l1.66 -5.02 l-0.92 -3.36 c-0.04 -0.12 0.06 -0.22 0.16 -0.22 l2.48 0 c0.08 0 0.12 0.02 0.16 0.12 l1.84 8.16 l2.2 -8.16 c0.02 -0.06 0.08 -0.12 0.16 -0.12 l2.3 0 z M17.08 8 l-0.14 0.42 l-0.64 -0.64 l0.1 -0.46 z M16.82 8.88 l-0.1 0.44 l-0.68 -0.66 l0.14 -0.44 z M16.6 9.76 l-0.12 0.44 l-0.66 -0.64 l0.1 -0.46 z M16.34 10.66 l-0.1 0.44 l-0.66 -0.68 l0.12 -0.44 z M15.44 10.88 l0.68 0.64 l-0.12 0.46 l-0.66 -0.68 z M15.88 12.42 l-0.1 0.44 l-0.68 -0.66 l0.12 -0.44 z M15.64 13.3 l-0.12 0.46 l-0.64 -0.68 l0.1 -0.46 z M10.7 8.9 l-0.56 -0.52 l-0.14 -0.72 l0.52 0.52 z M15.4 14.18 l-0.1 0.44 l-0.68 -0.64 l0.12 -0.46 z M10.84 9.62 l0.18 0.74 l-0.54 -0.54 l-0.16 -0.72 z M15.18 15.08 l-0.14 0.42 l-0.64 -0.64 l0.1 -0.46 z M10.64 10.56 l0.54 0.52 l0.16 0.72 l-0.52 -0.52 z M14.92 15.96 l-0.1 0.44 l-0.68 -0.68 l0.14 -0.42 z M11.14 12.719999999999999 l-0.16 -0.72 l0.54 0.52 l0.16 0.68 l-0.04 0.02 z M11.52 13.68 l-0.08 0.34 l-0.14 -0.56 z M14.7 16.82 l-0.12 0.46 l-0.66 -0.66 l0.1 -0.44 z M4.22 7.5 l0.52 0.52 l0.2 0.76 l-0.52 -0.52 z M13.68 17.5 l0.12 -0.44 l0.64 0.66 l-0.1 0.46 z M14.22 18.6 l-0.12 0.46 l-0.66 -0.68 l0.1 -0.42 z M5.34 10.3 l-0.52 -0.52 l-0.2 -0.76 l0.52 0.5 z M5.74 11.82 l-0.52 -0.52 l-0.2 -0.74 l0.52 0.5 z M13.2 19.28 l0.12 -0.46 l0.66 0.68 l-0.1 0.42 z M13.64 20.76 c0 0.02 -0.02 0.04 -0.04 0.04 l-0.68 -0.68 c0.06 -0.04 0.08 -0.06 0.1 -0.16 l0.06 -0.24 l0.66 0.66 z M5.42 12.059999999999999 l0.52 0.52 l0.2 0.78 l-0.52 -0.54 z M8.82 15.66 l0.16 0.52 l-0.24 -0.26 z M9.22 17.1 l-0.1 0.32 l-0.68 -0.66 l0.16 -0.4 l0.58 0.6 z M11.92 20.26 l0.58 0 l0.62 0.62 l-0.58 0 z M6.1 14.42 l-0.08 -0.06 l-0.2 -0.78 l0.42 0.42 z M11.42 20.88 l-0.6 -0.62 l0.56 0 l0.62 0.62 l-0.58 0 z M8.98 17.86 l-0.16 0.4 l-0.68 -0.68 l0.16 -0.4 z M8.68 18.68 l-0.16 0.4 l-0.68 -0.68 l0.16 -0.4 z M8.38 19.5 l-0.16 0.4 l-0.68 -0.68 l0.16 -0.4 z M8.08 20.32 l-0.16 0.4 l-0.68 -0.66 c0 -0.04 0.04 -0.06 0.04 -0.08 l0.12 -0.32 z M6.88 20.26 l0.62 0.62 l-0.56 0 l-0.62 -0.62 l0.56 0 z M6.38 20.88 l-0.56 0 l-0.62 -0.62 l0.58 0 z M22.1415 20 c-0.1 0 -0.16 -0.08 -0.16 -0.18 l0 -12.84 c0 -0.1 0.06 -0.18 0.16 -0.18 l6.8 0 c0.1 0 0.18 0.08 0.18 0.18 l0 2.14 c0 0.1 -0.08 0.18 -0.18 0.18 l-4.32 0 l0 2.72 l3.36 0 c0.1 0 0.16 0.08 0.16 0.18 l0 2.18 c0 0.1 -0.06 0.18 -0.16 0.18 l-3.36 0 l0 2.94 l4.32 0 c0.1 0 0.18 0.08 0.18 0.18 l0 2.14 c0 0.1 -0.08 0.18 -0.18 0.18 l-6.8 0 z M28.401500000000002 14.36 l0.62 0.62 l0 0.28 c0 0.06 -0.08 0.14 -0.12 0.14 l-0.7 -0.68 c0.12 -0.06 0.2 -0.2 0.2 -0.36 z M29.381500000000003 19.82 l0.62 0.64 l0 0.24 c0 0.08 -0.08 0.16 -0.16 0.18 l-0.66 -0.7 c0.12 -0.06 0.2 -0.2 0.2 -0.36 z M28.401500000000002 13.8 l0 -0.58 l0.62 0.64 l0 0.56 z M24.881500000000003 10.28 l0 -0.58 l0.62 0.62 l0 0.58 z M25.521500000000003 15.42 l-0.62 -0.62 l0.58 0 l0.62 0.62 l-0.58 0 z M29.8215 10.18 l-0.58 0 l-0.6 -0.62 l0.3 0 c0.08 0 0.16 -0.04 0.2 -0.06 z M24.8015 20.88 l-0.56 0 l-0.62 -0.62 l0.58 0 z M22.5015 20.26 l0.58 0 l0.6 0.62 l-0.56 0 z M29.381500000000003 19.28 l0 -0.58 l0.62 0.62 l0 0.56 z M27.1415 14.8 l0.58 0 l0.6 0.62 l-0.54 0 z M28.1215 10.18 l-0.6 -0.62 l0.56 0 l0.62 0.62 l-0.58 0 z M28.1215 20.26 l0.56 0 l0.62 0.62 l-0.58 0 z M26.401500000000002 9.56 l0.54 0 l0.64 0.62 l-0.58 0 z M27.541500000000003 20.26 l0.64 0.62 l-0.58 0 l-0.6 -0.62 l0.54 0 z M26.6015 14.8 l0.6 0.62 l-0.56 0 l-0.62 -0.62 l0.58 0 z M25.9215 20.88 l-0.54 0 l-0.64 -0.62 l0.56 0 z M30.0015 9.22 l0 0.56 l-0.62 -0.62 l0 -0.56 z M25.5015 15.96 l0 0.54 l-0.62 -0.62 l0 -0.56 z M30.0015 8.1 l0 0.56 l-0.62 -0.64 l0 -0.54 z M25.2815 9.56 l0.54 0 l0.62 0.62 l-0.54 0 z M27.041500000000003 20.88 l-0.54 0 l-0.62 -0.62 l0.54 0 z M24.881500000000003 11.4 l0 -0.58 l0.62 0.64 l0 0.32 l-0.26 0 z M24.881500000000003 17 l0 -0.54 l0.62 0.62 l0 0.18 l-0.38 0 z M28.401500000000002 12.379999999999999 l0.58 0.58 c0.04 0.04 0.04 0.06 0.04 0.12 l0 0.22 l-0.62 -0.62 l0 -0.3 z M30.0015 18.52 l0 0.24 l-0.62 -0.6 l0 -0.3 l0.56 0.54 c0.06 0.06 0.06 0.08 0.06 0.12 z M42.663000000000004 10.22 c0 0.78 -0.12 1.46 -0.4 1.96 c0.76 0.72 1.08 1.88 1.08 3.5 c0 1.72 -0.36 2.94 -1.18 3.58 c-0.78 0.62 -1.88 0.74 -2.98 0.74 l-3.9 0 c-0.1 0 -0.16 -0.08 -0.16 -0.18 l0 -12.84 c0 -0.1 0.06 -0.18 0.16 -0.18 l3.2 0 c1.08 0 2.2 0.08 2.96 0.58 c0.94 0.6 1.22 1.68 1.22 2.84 z M38.523 17.38 c1.1 0 2.14 -0.48 2.14 -1.76 c0 -0.96 -0.68 -1.72 -1.7 -1.72 l-1.2 0 l0 3.48 l0.76 0 z M37.763000000000005 9.42 l0 1.8 l1.22 0 c0.64 0 0.98 -0.2 0.98 -0.9 s-0.52 -0.9 -1.4 -0.9 l-0.8 0 z M43.823 19.08 l-0.68 -0.68 c0.08 -0.14 0.12 -0.28 0.14 -0.42 l0.68 0.68 z M43.623000000000005 19.46 c-0.06 0.1 -0.16 0.22 -0.24 0.32 l-0.66 -0.7 c0.1 -0.1 0.16 -0.22 0.22 -0.32 z M42.423 19.38 l0.7 0.68 c-0.1 0.12 -0.24 0.2 -0.34 0.24 l-0.66 -0.7 c0.12 -0.04 0.2 -0.12 0.3 -0.22 z M41.343 19.98 c0.14 -0.06 0.28 -0.1 0.4 -0.18 l0.68 0.68 c-0.14 0.08 -0.26 0.12 -0.4 0.14 z M43.223 12.879999999999999 l-0.66 -0.76 c0.06 -0.1 0.1 -0.22 0.12 -0.34 l0.68 0.68 c-0.02 0.14 -0.08 0.26 -0.14 0.42 z M41.063 20.82 l-0.62 -0.64 c0.14 0 0.3 -0.02 0.48 -0.08 l0.64 0.66 c-0.14 0.04 -0.3 0.06 -0.5 0.06 z M42.823 11.36 l0.06 -0.5 l0.64 0.62 c0 0.18 -0.04 0.34 -0.06 0.5 z M43.563 16.58 c0.02 -0.16 0.02 -0.36 0.02 -0.56 l0.64 0.64 c0 0.2 -0.04 0.36 -0.04 0.54 z M44.063 18.2 l-0.64 -0.64 c0.04 -0.18 0.04 -0.3 0.06 -0.48 l0.66 0.64 z M39.383 20.26 c0.18 0 0.36 0 0.54 -0.04 l0.62 0.64 c-0.16 0.02 -0.32 0.02 -0.56 0.02 z M38.643 15.58 l0 0.54 l-0.62 -0.6 l0 -0.56 z M43.483000000000004 10.32 c0.04 0.2 0.06 0.4 0.06 0.6 l-0.62 -0.6 c0 -0.26 0 -0.42 -0.04 -0.6 z M38.883 14.16 c0.3 0 0.5 0.04 0.68 0.1 l0.52 0.52 l-0.56 0 z M36.023 20.26 l0.54 0 l0.62 0.62 l-0.54 0 z M37.763000000000005 20.88 l-0.62 -0.62 l0.54 0 l0.64 0.62 l-0.56 0 z M38.643 10.3 l0 0.22 l-0.62 -0.62 l0 -0.22 l0.32 0 l0.62 0.62 l-0.32 0 z M38.823 20.26 l0.62 0.62 l-0.56 0 l-0.62 -0.62 l0.56 0 z M38.643 14.780000000000001 l0 0.22 l-0.62 -0.6 l0 -0.24 l0.32 0 l0.6 0.62 l-0.3 0 z M43.583 15.48 c0 -0.2 0 -0.38 -0.02 -0.58 l0.6 0.58 c0 0.2 0.02 0.4 0.02 0.6 z M38.023 16.62 l0 -0.54 l0.62 0.62 l0 0.42 l-0.12 0 z M43.763000000000005 13.98 c0.12 0.24 0.2 0.52 0.28 0.82 l-0.56 -0.54 c-0.02 -0.26 -0.06 -0.48 -0.14 -0.74 z M38.923 9.7 c0.7 0.06 0.8 0.32 0.8 0.6 l-0.2 0 z M42.643 8.5 c0.32 0.3 0.54 0.68 0.7 1.1 l-0.52 -0.5 c-0.06 -0.22 -0.1 -0.42 -0.18 -0.6 z M38.023 10.98 l0 -0.5 l0.5 0.5 l-0.5 0 z M63.846000000000004 11.9 c1.52 0.72 3.5 1.86 3.5 3.92 c0 0.6 -0.1 1.76 -0.76 2.74 c-0.74 1.1 -1.9 1.64 -3.5 1.64 c-1.7 0 -3.68 -0.82 -4.3 -2.68 c-0.02 -0.06 0 -0.12 0.06 -0.16 l1.84 -1.58 c0.08 -0.06 0.2 -0.06 0.26 0.04 c0.04 0.1 0.12 0.26 0.22 0.46 c0.3 0.62 1.02 1.24 1.82 1.24 c0.62 0 1.46 -0.34 1.46 -1.3 c0 -0.92 -1.26 -1.44 -2.04 -1.74 c-0.9 -0.36 -1.82 -0.82 -2.6 -1.5 c-0.82 -0.76 -1.22 -1.6 -1.22 -2.6 c0 -2.5 2.3 -3.76 4.48 -3.76 c1.72 0 3 0.9 3.84 2.68 c0.04 0.08 0 0.18 -0.06 0.22 l-1.78 1.24 c-0.08 0.04 -0.12 0.04 -0.2 -0.06 c-0.68 -0.98 -1.28 -1.44 -2.08 -1.44 c-0.42 0 -1.4 0.16 -1.4 0.9 c0 0.9 1.66 1.36 2.46 1.74 z M66.986 9.72 c0.12 -0.1 0.2 -0.24 0.18 -0.4 l0.34 0.36 c0.08 0.14 0.18 0.32 0.28 0.5 c0.02 0.08 0 0.18 -0.08 0.22 l-0.02 0.02 z M67.046 10.88 l-0.7 -0.7 l0.32 -0.22 l0.7 0.7 z M66.366 11.32 l-0.7 -0.7 l0.32 -0.22 l0.7 0.7 z M63.666000000000004 9.76 c0.18 0.12 0.34 0.26 0.52 0.44 c-0.02 0 -0.08 -0.02 -0.1 -0.02 z M62.346000000000004 9.56 c0.14 -0.04 0.3 -0.06 0.52 -0.06 l0.62 0.66 c-0.14 0 -0.3 0.02 -0.48 0.06 z M61.666000000000004 10 c0.02 -0.08 0.1 -0.2 0.28 -0.3 l0.7 0.7 c-0.14 0.08 -0.24 0.18 -0.28 0.3 z M67.586 15.92 l0 -0.1 c0 -0.16 -0.02 -0.34 -0.04 -0.5 l0.54 0.56 c0.06 0.2 0.1 0.42 0.1 0.64 z M67.486 16.96 c0.02 -0.18 0.06 -0.36 0.06 -0.5 l0.64 0.64 c0 0.16 -0.02 0.3 -0.04 0.5 z M67.906 18.5 l-0.66 -0.68 c0.04 -0.14 0.1 -0.3 0.12 -0.42 l0.68 0.68 c-0.04 0.12 -0.08 0.28 -0.14 0.42 z M67.566 19.26 l-0.7 -0.68 c0.08 -0.12 0.14 -0.26 0.2 -0.38 l0.7 0.7 c-0.08 0.12 -0.12 0.26 -0.2 0.36 z M67.086 19.9 l-0.7 -0.7 c0.08 -0.1 0.18 -0.2 0.26 -0.3 l0.7 0.7 c-0.08 0.1 -0.18 0.2 -0.26 0.3 z M61.566 14.4 c0.24 0.1 0.5 0.22 0.74 0.32 c0.08 0.04 0.16 0.06 0.24 0.08 l0.42 0.42 c-0.38 -0.14 -0.76 -0.32 -1.1 -0.54 z M66.46600000000001 20.42 l-0.68 -0.7 c0.1 -0.06 0.2 -0.14 0.3 -0.24 l0.7 0.7 c-0.1 0.1 -0.2 0.18 -0.32 0.24 z M65.706 20.8 l-0.66 -0.68 c0.14 -0.06 0.26 -0.12 0.4 -0.2 l0.66 0.7 c-0.12 0.08 -0.24 0.14 -0.4 0.18 z M61.866 16.8 c-0.16 -0.12 -0.26 -0.28 -0.36 -0.4 l0.28 0.28 l0.02 0.02 c0.04 0.02 0.04 0.06 0.06 0.1 z M64.846 21.02 l-0.68 -0.64 c0.18 -0.06 0.32 -0.08 0.48 -0.12 l0.64 0.66 c-0.14 0.06 -0.3 0.08 -0.44 0.1 z M63.766 21.08 l-0.62 -0.62 c0.2 0 0.36 0 0.52 -0.04 l0.64 0.66 l-0.54 0 z M62.406 20.86 l-0.52 -0.54 c0.22 0.06 0.46 0.08 0.68 0.1 l0.58 0.6 c-0.24 -0.04 -0.48 -0.1 -0.74 -0.16 z M61.486000000000004 20.48 c-0.3 -0.16 -0.58 -0.36 -0.82 -0.58 c0.12 0.08 0.28 0.16 0.42 0.2 z M65.146 11 l0.2 -0.12 l0.7 0.68 l-0.1 0.06 c-0.08 0.06 -0.1 0.08 -0.2 -0.02 z M73.12750000000001 20 c-0.1 0 -0.16 -0.08 -0.16 -0.18 l0 -12.84 c0 -0.1 0.06 -0.18 0.16 -0.18 l6.8 0 c0.1 0 0.18 0.08 0.18 0.18 l0 2.14 c0 0.1 -0.08 0.18 -0.18 0.18 l-4.32 0 l0 2.72 l3.36 0 c0.1 0 0.16 0.08 0.16 0.18 l0 2.18 c0 0.1 -0.06 0.18 -0.16 0.18 l-3.36 0 l0 2.94 l4.32 0 c0.1 0 0.18 0.08 0.18 0.18 l0 2.14 c0 0.1 -0.08 0.18 -0.18 0.18 l-6.8 0 z M79.3875 14.36 l0.62 0.62 l0 0.28 c0 0.06 -0.08 0.14 -0.12 0.14 l-0.7 -0.68 c0.12 -0.06 0.2 -0.2 0.2 -0.36 z M80.3675 19.82 l0.62 0.64 l0 0.24 c0 0.08 -0.08 0.16 -0.16 0.18 l-0.66 -0.7 c0.12 -0.06 0.2 -0.2 0.2 -0.36 z M79.3875 13.8 l0 -0.58 l0.62 0.64 l0 0.56 z M75.8675 10.28 l0 -0.58 l0.62 0.62 l0 0.58 z M76.50750000000001 15.42 l-0.62 -0.62 l0.58 0 l0.62 0.62 l-0.58 0 z M80.8075 10.18 l-0.58 0 l-0.6 -0.62 l0.3 0 c0.08 0 0.16 -0.04 0.2 -0.06 z M75.78750000000001 20.88 l-0.56 0 l-0.62 -0.62 l0.58 0 z M73.48750000000001 20.26 l0.58 0 l0.6 0.62 l-0.56 0 z M80.3675 19.28 l0 -0.58 l0.62 0.62 l0 0.56 z M78.12750000000001 14.8 l0.58 0 l0.6 0.62 l-0.54 0 z M79.1075 10.18 l-0.6 -0.62 l0.56 0 l0.62 0.62 l-0.58 0 z M79.1075 20.26 l0.56 0 l0.62 0.62 l-0.58 0 z M77.3875 9.56 l0.54 0 l0.64 0.62 l-0.58 0 z M78.5275 20.26 l0.64 0.62 l-0.58 0 l-0.6 -0.62 l0.54 0 z M77.5875 14.8 l0.6 0.62 l-0.56 0 l-0.62 -0.62 l0.58 0 z M76.9075 20.88 l-0.54 0 l-0.64 -0.62 l0.56 0 z M80.98750000000001 9.22 l0 0.56 l-0.62 -0.62 l0 -0.56 z M76.48750000000001 15.96 l0 0.54 l-0.62 -0.62 l0 -0.56 z M80.98750000000001 8.1 l0 0.56 l-0.62 -0.64 l0 -0.54 z M76.26750000000001 9.56 l0.54 0 l0.62 0.62 l-0.54 0 z M78.0275 20.88 l-0.54 0 l-0.62 -0.62 l0.54 0 z M75.8675 11.4 l0 -0.58 l0.62 0.64 l0 0.32 l-0.26 0 z M75.8675 17 l0 -0.54 l0.62 0.62 l0 0.18 l-0.38 0 z M79.3875 12.379999999999999 l0.58 0.58 c0.04 0.04 0.04 0.06 0.04 0.12 l0 0.22 l-0.62 -0.62 l0 -0.3 z M80.98750000000001 18.52 l0 0.24 l-0.62 -0.6 l0 -0.3 l0.56 0.54 c0.06 0.06 0.06 0.08 0.06 0.12 z M93.609 14.780000000000001 c-0.28 0.58 -0.68 1.02 -1.24 1.28 l1.68 3.7 c0.06 0.12 -0.02 0.24 -0.14 0.24 l-2.46 0 c-0.08 0 -0.12 -0.04 -0.14 -0.1 l-1.56 -3.4 l-1.02 0 l0 3.32 c0 0.1 -0.08 0.18 -0.18 0.18 l-2.3 0 c-0.08 0 -0.14 -0.08 -0.14 -0.18 l0 -12.84 c0 -0.1 0.06 -0.18 0.14 -0.18 l4.16 0 c2.22 0 3.56 1.26 3.56 3.6 l0 2.52 c0 0.7 -0.12 1.36 -0.36 1.86 z M91.349 12.3 l0 -1.3 c0 -1.4 -0.52 -1.54 -2.04 -1.54 l-0.58 0 l0 4.42 l0.58 0 c1.26 0 2 -0.02 2.04 -1.58 z M93.869 20.88 l-0.62 -0.62 l0.56 0 l0.62 0.62 l-0.56 0 z M88.969 17.1 l0 -0.34 l0.2 0 l0.64 0.62 l-0.2 0 l0 0.34 z M92.749 20.88 l-0.62 -0.62 l0.54 0 l0.64 0.62 l-0.56 0 z M89.609 18.86 l-0.64 -0.64 l0 -0.54 l0.64 0.62 l0 0.56 z M89.609 19.98 l-0.64 -0.62 l0 -0.56 l0.64 0.62 l0 0.56 z M88.729 20.22 c0.12 -0.04 0.22 -0.16 0.24 -0.32 l0.64 0.66 l0 0.14 c0 0.1 -0.08 0.18 -0.18 0.18 l-0.06 0 z M88.249 20.88 l-0.62 -0.62 l0.58 0 l0.62 0.62 l-0.58 0 z M87.129 20.88 l-0.62 -0.62 l0.56 0 l0.64 0.62 l-0.58 0 z M94.809 10.6 l-0.58 -0.6 c-0.02 -0.22 -0.06 -0.44 -0.1 -0.64 l0.52 0.52 c0.08 0.22 0.12 0.48 0.16 0.72 z M94.849 11.76 l-0.62 -0.64 l0 -0.54 l0.62 0.62 l0 0.56 z M94.849 12.879999999999999 l-0.62 -0.62 l0 -0.56 l0.62 0.62 l0 0.56 z M94.209 13.36 c0.02 -0.14 0.02 -0.28 0.02 -0.44 l0 -0.1 l0.62 0.64 l0 0.34 l0 0.2 z M90.629 9.78 c0.14 0.08 0.24 0.18 0.34 0.34 z M90.609 10.32 l-0.56 0 l-0.62 -0.62 l0.54 0 z M94.729 15 l-0.68 -0.68 c0.02 -0.14 0.08 -0.3 0.1 -0.46 l0.66 0.66 c-0.04 0.16 -0.06 0.34 -0.08 0.48 z M89.609 10.46 l0 0.54 l-0.64 -0.62 l0 -0.58 z M93.709 15.1 c0.04 -0.08 0.06 -0.12 0.12 -0.22 c0.02 -0.06 0.04 -0.1 0.08 -0.16 l0.66 0.7 c-0.02 0.08 -0.04 0.16 -0.1 0.24 c-0.02 0.04 -0.04 0.1 -0.06 0.14 z M89.609 11.56 l0 0.56 l-0.64 -0.62 l0 -0.58 z M93.929 16.46 l-0.7 -0.7 c0.1 -0.1 0.18 -0.2 0.24 -0.3 l0.7 0.7 c-0.06 0.1 -0.14 0.2 -0.24 0.3 z M89.609 12.68 l0 0.58 l-0.64 -0.64 l0 -0.56 z M92.849 16.5 l-0.14 -0.32 c0.06 -0.06 0.14 -0.1 0.22 -0.18 l0.7 0.7 c-0.1 0.08 -0.22 0.16 -0.36 0.22 z M94.169 18.92 l-0.36 -0.36 l-0.48 -1.04 l0.38 0.38 z M88.969 13.620000000000001 l0 -0.44 l0.46 0.44 l-0.12 0 l-0.34 0 z M94.229 20.12 c0.12 -0.12 0.12 -0.3 0.08 -0.46 l-0.04 -0.06 l0.36 0.36 l0.32 0.66 c0.02 0.08 0 0.14 -0.02 0.18 z M104.0305 15.2 l2.26 -8.28 c0.04 -0.06 0.08 -0.12 0.16 -0.12 l2.28 0 c0.12 0 0.2 0.1 0.16 0.22 l-3.46 12.86 c-0.04 0.08 -0.08 0.12 -0.16 0.12 l-2.48 0 c-0.06 0 -0.12 -0.04 -0.14 -0.12 l-3.46 -12.86 c-0.02 -0.12 0.06 -0.22 0.18 -0.22 l2.3 0 c0.08 0 0.12 0.06 0.16 0.12 z M109.1905 9.98 l-0.04 -0.08 l-0.62 -0.6 l0.12 -0.44 l0.68 0.66 l-0.08 0.3 z M108.9505 10.86 l-0.38 -0.38 l-0.28 -0.3 l0.14 -0.42 l0.44 0.44 l0.2 0.2 z M108.8505 11.3 l-0.12 0.42 l-0.68 -0.64 l0.02 -0.1 l0.1 -0.36 l0.12 0.14 z M108.4705 12.620000000000001 l-0.64 -0.66 l0.1 -0.44 l0.66 0.66 z M107.57050000000001 12.86 l0.12 -0.46 l0.68 0.66 l-0.12 0.44 z M107.3505 13.719999999999999 l0.12 -0.44 l0.66 0.68 l-0.14 0.44 z M107.0905 14.6 l0.14 -0.42 l0.66 0.64 l-0.12 0.46 z M106.8705 15.5 l0.12 -0.44 l0.66 0.66 l-0.12 0.44 z M106.6305 16.38 l0.12 -0.46 l0.64 0.68 l-0.1 0.46 z M106.3905 17.28 l0.1 -0.46 l0.68 0.66 l-0.12 0.44 z M106.15050000000001 18.16 l0.12 -0.46 l0.66 0.68 l-0.1 0.42 z M105.9305 19.02 l0.1 -0.42 l0.66 0.66 l-0.12 0.44 z M106.4705 20.16 l-0.12 0.42 l-0.68 -0.66 l0.12 -0.44 z M105.4305 20.22 l0.64 0.66 l-0.58 0 l-0.6 -0.62 l0.38 0 c0.06 0 0.1 0 0.16 -0.04 z M104.9505 20.88 l-0.58 0 l-0.6 -0.62 l0.56 0 z M103.6705 20.88 c-0.04 0 -0.08 -0.02 -0.12 -0.08 l-0.58 -0.54 l0.22 0 l0.64 0.62 l-0.16 0 z M109.5505 8.66 l-0.12 0.42 l-0.66 -0.66 l0.12 -0.44 z M102.6905 7.800000000000001 l0.06 0.22 l-0.5 -0.52 l-0.08 -0.28 c0.2 0.24 0.42 0.44 0.46 0.46 c0.02 0.02 0.06 0.08 0.06 0.12 z M102.9505 8.78 l0.2 0.78 l-0.5 -0.54 l-0.2 -0.74 z M103.57050000000001 11.08 l-0.52 -0.52 l-0.2 -0.76 l0.52 0.5 z M103.4505 12.08 l-0.2 -0.76 l0.52 0.5 l0.2 0.78 z M104.1305 13.879999999999999 l-0.28 -0.28 l-0.2 -0.74 l0.52 0.5 l0.06 0.16 z M109.7505 7.880000000000001 l-0.08 0.32 l-0.68 -0.68 l0.14 -0.4 l0.56 0.6 c0.06 0.06 0.08 0.1 0.06 0.16 z M114.45200000000001 20 c-0.1 0 -0.16 -0.08 -0.16 -0.18 l0 -12.84 c0 -0.1 0.06 -0.18 0.16 -0.18 l2.28 0 c0.1 0 0.18 0.08 0.18 0.18 l0 12.84 c0 0.1 -0.08 0.18 -0.18 0.18 l-2.28 0 z M117.152 8.12 l0 -0.54 l0.64 0.6 l0 0.58 z M117.152 9.26 l0 -0.56 l0.64 0.6 l0 0.58 z M117.152 10.38 l0 -0.58 l0.64 0.62 l0 0.56 z M117.152 11.5 l0 -0.58 l0.64 0.64 l0 0.54 z M117.152 12.620000000000001 l0 -0.56 l0.64 0.62 l0 0.54 z M117.152 13.76 l0 -0.58 l0.64 0.62 l0 0.56 z M117.152 14.879999999999999 l0 -0.58 l0.64 0.62 l0 0.56 z M117.152 15.98 l0 -0.56 l0.64 0.6 l0 0.58 z M117.152 17.1 l0 -0.54 l0.64 0.62 l0 0.54 z M117.152 18.22 l0 -0.54 l0.64 0.6 l0 0.58 z M117.152 19.36 l0 -0.56 l0.64 0.6 l0 0.58 z M116.912 20.22 c0.12 -0.04 0.22 -0.16 0.24 -0.32 l0.64 0.62 l0 0.18 c0 0.1 -0.08 0.18 -0.18 0.18 l-0.06 0 z M115.81200000000001 20.26 l0.58 0 l0.62 0.62 l-0.58 0 z M115.31200000000001 20.88 l-0.6 -0.62 l0.54 0 l0.64 0.62 l-0.58 0 z M129.4735 15.379999999999999 l0 -0.62 c0 -0.1 0.08 -0.18 0.18 -0.18 l2.28 0 c0.1 0 0.18 0.08 0.18 0.18 l0 1.26 c0 2.94 -1.58 4.18 -4.56 4.18 c-2.78 0 -4.6 -1.1 -4.6 -4.18 l0 -5.26 c0 -2.96 1.62 -4.14 4.6 -4.14 c2.82 0 4.56 1.08 4.56 4.14 l0 0.42 c0 0.1 -0.08 0.18 -0.18 0.18 l-2.3 0 c-0.1 0 -0.18 -0.08 -0.18 -0.18 l0 -0.32 c0 -1.1 -0.82 -1.56 -1.8 -1.56 l-0.24 0 c-0.66 0 -1.1 0.18 -1.4 0.58 c-0.28 0.38 -0.38 0.88 -0.38 1.54 l0 3.96 c0 1.74 0.98 2.12 1.78 2.12 l0.24 0 c0.66 0 1.12 -0.18 1.42 -0.58 c0.26 -0.36 0.4 -0.86 0.4 -1.54 z M127.15350000000001 10.46 c-0.1 0.1 -0.2 0.16 -0.28 0.3 l-0.7 -0.7 c0.04 -0.08 0.2 -0.26 0.28 -0.28 z M132.0535 19.86 l-0.3 0.26 l-0.68 -0.7 c0.14 -0.1 0.2 -0.16 0.28 -0.26 z M132.5135 19.18 c-0.08 0.12 -0.14 0.24 -0.2 0.34 l-0.7 -0.66 l0.22 -0.36 z M132.9735 11.78 l0 0.28 c0 0.06 -0.06 0.14 -0.14 0.16 l-0.68 -0.7 c0.12 -0.06 0.2 -0.2 0.2 -0.34 z M125.9135 10.9 c0.02 -0.18 0.04 -0.32 0.1 -0.48 l0.66 0.68 c-0.04 0.12 -0.1 0.28 -0.12 0.46 z M127.3735 9.56 l0.64 0.62 c-0.18 0.02 -0.34 0.04 -0.48 0.1 l-0.68 -0.68 c0.12 -0.04 0.4 -0.08 0.52 -0.04 z M132.9535 17.38 c0 0.18 -0.02 0.34 -0.04 0.52 l-0.66 -0.64 l0.08 -0.5 z M130.7535 19.68 l0.68 0.68 c-0.1 0.06 -0.22 0.14 -0.36 0.2 l-0.66 -0.68 c0.12 -0.06 0.24 -0.12 0.34 -0.2 z M132.8135 18.36 c-0.04 0.14 -0.08 0.3 -0.14 0.42 l-0.66 -0.68 c0.06 -0.2 0.1 -0.3 0.14 -0.4 z M130.2535 20.86 l-0.64 -0.66 l0.4 -0.14 l0.66 0.66 c-0.12 0.06 -0.26 0.1 -0.42 0.14 z M128.6535 20.38 c0.18 0 0.32 -0.02 0.5 -0.08 l0.66 0.66 l-0.5 0.06 z M128.4335 21.08 l-0.2 0 l-0.62 -0.62 c0.16 0 0.36 0 0.54 -0.04 l0.62 0.64 c-0.12 0.02 -0.24 0.02 -0.34 0.02 z M132.9735 16.28 l0 0.58 l-0.62 -0.64 l0 -0.56 z M125.8735 13.120000000000001 l0 -0.56 l0.64 0.62 l0 0.54 z M125.8735 12 l0 -0.58 l0.64 0.64 l0 0.54 z M132.33350000000002 10 l0.58 0.6 c0.02 0.18 0.04 0.4 0.04 0.62 l-0.6 -0.62 c0 -0.2 -0.02 -0.4 -0.02 -0.6 z M125.8735 15.36 l0 -0.56 l0.64 0.62 l0 0.56 z M131.1135 11.6 l0.54 0 l0.62 0.62 l-0.54 0 z M125.8735 14.219999999999999 l0 -0.54 l0.64 0.62 l0 0.56 z M129.9735 11.6 l0.56 0 l0.62 0.62 l-0.54 0 z M126.4135 20.38 c0.2 0.02 0.4 0.04 0.62 0.04 l0.6 0.6 c-0.22 0 -0.46 -0.04 -0.66 -0.06 z M127.9335 9.58 c0.44 0.04 0.88 0.2 1.14 0.64 c-0.16 -0.04 -0.34 -0.04 -0.52 -0.04 z M125.9335 15.98 l0.58 0.58 l0.06 0.5 c-0.34 -0.2 -0.56 -0.58 -0.64 -1.08 z M124.9135 19.98 c0.24 0.12 0.52 0.22 0.82 0.28 l0.5 0.5 c-0.52 -0.18 -0.98 -0.44 -1.32 -0.78 z M132.7335 9.86 l-0.52 -0.5 c-0.06 -0.24 -0.1 -0.44 -0.18 -0.64 c-0.02 -0.02 -0.06 -0.06 -0.06 -0.1 c0.34 0.34 0.58 0.74 0.76 1.24 z M132.9735 15.620000000000001 l0 0.1 l-0.62 -0.62 l0 -0.18 l0.58 0.58 c0.02 0.02 0.04 0.06 0.04 0.12 z M138.275 20 c-0.1 0 -0.16 -0.08 -0.16 -0.18 l0 -12.84 c0 -0.1 0.06 -0.18 0.16 -0.18 l6.8 0 c0.1 0 0.18 0.08 0.18 0.18 l0 2.14 c0 0.1 -0.08 0.18 -0.18 0.18 l-4.32 0 l0 2.72 l3.36 0 c0.1 0 0.16 0.08 0.16 0.18 l0 2.18 c0 0.1 -0.06 0.18 -0.16 0.18 l-3.36 0 l0 2.94 l4.32 0 c0.1 0 0.18 0.08 0.18 0.18 l0 2.14 c0 0.1 -0.08 0.18 -0.18 0.18 l-6.8 0 z M144.53500000000003 14.36 l0.62 0.62 l0 0.28 c0 0.06 -0.08 0.14 -0.12 0.14 l-0.7 -0.68 c0.12 -0.06 0.2 -0.2 0.2 -0.36 z M145.51500000000001 19.82 l0.62 0.64 l0 0.24 c0 0.08 -0.08 0.16 -0.16 0.18 l-0.66 -0.7 c0.12 -0.06 0.2 -0.2 0.2 -0.36 z M144.53500000000003 13.8 l0 -0.58 l0.62 0.64 l0 0.56 z M141.01500000000001 10.28 l0 -0.58 l0.62 0.62 l0 0.58 z M141.655 15.42 l-0.62 -0.62 l0.58 0 l0.62 0.62 l-0.58 0 z M145.955 10.18 l-0.58 0 l-0.6 -0.62 l0.3 0 c0.08 0 0.16 -0.04 0.2 -0.06 z M140.935 20.88 l-0.56 0 l-0.62 -0.62 l0.58 0 z M138.63500000000002 20.26 l0.58 0 l0.6 0.62 l-0.56 0 z M145.51500000000001 19.28 l0 -0.58 l0.62 0.62 l0 0.56 z M143.275 14.8 l0.58 0 l0.6 0.62 l-0.54 0 z M144.25500000000002 10.18 l-0.6 -0.62 l0.56 0 l0.62 0.62 l-0.58 0 z M144.25500000000002 20.26 l0.56 0 l0.62 0.62 l-0.58 0 z M142.53500000000003 9.56 l0.54 0 l0.64 0.62 l-0.58 0 z M143.675 20.26 l0.64 0.62 l-0.58 0 l-0.6 -0.62 l0.54 0 z M142.735 14.8 l0.6 0.62 l-0.56 0 l-0.62 -0.62 l0.58 0 z M142.055 20.88 l-0.54 0 l-0.64 -0.62 l0.56 0 z M146.13500000000002 9.22 l0 0.56 l-0.62 -0.62 l0 -0.56 z M141.63500000000002 15.96 l0 0.54 l-0.62 -0.62 l0 -0.56 z M146.13500000000002 8.1 l0 0.56 l-0.62 -0.64 l0 -0.54 z M141.41500000000002 9.56 l0.54 0 l0.62 0.62 l-0.54 0 z M143.175 20.88 l-0.54 0 l-0.62 -0.62 l0.54 0 z M141.01500000000001 11.4 l0 -0.58 l0.62 0.64 l0 0.32 l-0.26 0 z M141.01500000000001 17 l0 -0.54 l0.62 0.62 l0 0.18 l-0.38 0 z M144.53500000000003 12.379999999999999 l0.58 0.58 c0.04 0.04 0.04 0.06 0.04 0.12 l0 0.22 l-0.62 -0.62 l0 -0.3 z M146.13500000000002 18.52 l0 0.24 l-0.62 -0.6 l0 -0.3 l0.56 0.54 c0.06 0.06 0.06 0.08 0.06 0.12 z M155.75650000000002 11.9 c1.52 0.72 3.5 1.86 3.5 3.92 c0 0.6 -0.1 1.76 -0.76 2.74 c-0.74 1.1 -1.9 1.64 -3.5 1.64 c-1.7 0 -3.68 -0.82 -4.3 -2.68 c-0.02 -0.06 0 -0.12 0.06 -0.16 l1.84 -1.58 c0.08 -0.06 0.2 -0.06 0.26 0.04 c0.04 0.1 0.12 0.26 0.22 0.46 c0.3 0.62 1.02 1.24 1.82 1.24 c0.62 0 1.46 -0.34 1.46 -1.3 c0 -0.92 -1.26 -1.44 -2.04 -1.74 c-0.9 -0.36 -1.82 -0.82 -2.6 -1.5 c-0.82 -0.76 -1.22 -1.6 -1.22 -2.6 c0 -2.5 2.3 -3.76 4.48 -3.76 c1.72 0 3 0.9 3.84 2.68 c0.04 0.08 0 0.18 -0.06 0.22 l-1.78 1.24 c-0.08 0.04 -0.12 0.04 -0.2 -0.06 c-0.68 -0.98 -1.28 -1.44 -2.08 -1.44 c-0.42 0 -1.4 0.16 -1.4 0.9 c0 0.9 1.66 1.36 2.46 1.74 z M158.89650000000003 9.72 c0.12 -0.1 0.2 -0.24 0.18 -0.4 l0.34 0.36 c0.08 0.14 0.18 0.32 0.28 0.5 c0.02 0.08 0 0.18 -0.08 0.22 l-0.02 0.02 z M158.95650000000003 10.88 l-0.7 -0.7 l0.32 -0.22 l0.7 0.7 z M158.27650000000003 11.32 l-0.7 -0.7 l0.32 -0.22 l0.7 0.7 z M155.5765 9.76 c0.18 0.12 0.34 0.26 0.52 0.44 c-0.02 0 -0.08 -0.02 -0.1 -0.02 z M154.25650000000002 9.56 c0.14 -0.04 0.3 -0.06 0.52 -0.06 l0.62 0.66 c-0.14 0 -0.3 0.02 -0.48 0.06 z M153.5765 10 c0.02 -0.08 0.1 -0.2 0.28 -0.3 l0.7 0.7 c-0.14 0.08 -0.24 0.18 -0.28 0.3 z M159.49650000000003 15.92 l0 -0.1 c0 -0.16 -0.02 -0.34 -0.04 -0.5 l0.54 0.56 c0.06 0.2 0.1 0.42 0.1 0.64 z M159.39650000000003 16.96 c0.02 -0.18 0.06 -0.36 0.06 -0.5 l0.64 0.64 c0 0.16 -0.02 0.3 -0.04 0.5 z M159.81650000000002 18.5 l-0.66 -0.68 c0.04 -0.14 0.1 -0.3 0.12 -0.42 l0.68 0.68 c-0.04 0.12 -0.08 0.28 -0.14 0.42 z M159.47650000000002 19.26 l-0.7 -0.68 c0.08 -0.12 0.14 -0.26 0.2 -0.38 l0.7 0.7 c-0.08 0.12 -0.12 0.26 -0.2 0.36 z M158.99650000000003 19.9 l-0.7 -0.7 c0.08 -0.1 0.18 -0.2 0.26 -0.3 l0.7 0.7 c-0.08 0.1 -0.18 0.2 -0.26 0.3 z M153.47650000000002 14.4 c0.24 0.1 0.5 0.22 0.74 0.32 c0.08 0.04 0.16 0.06 0.24 0.08 l0.42 0.42 c-0.38 -0.14 -0.76 -0.32 -1.1 -0.54 z M158.37650000000002 20.42 l-0.68 -0.7 c0.1 -0.06 0.2 -0.14 0.3 -0.24 l0.7 0.7 c-0.1 0.1 -0.2 0.18 -0.32 0.24 z M157.61650000000003 20.8 l-0.66 -0.68 c0.14 -0.06 0.26 -0.12 0.4 -0.2 l0.66 0.7 c-0.12 0.08 -0.24 0.14 -0.4 0.18 z M153.77650000000003 16.8 c-0.16 -0.12 -0.26 -0.28 -0.36 -0.4 l0.28 0.28 l0.02 0.02 c0.04 0.02 0.04 0.06 0.06 0.1 z M156.75650000000002 21.02 l-0.68 -0.64 c0.18 -0.06 0.32 -0.08 0.48 -0.12 l0.64 0.66 c-0.14 0.06 -0.3 0.08 -0.44 0.1 z M155.67650000000003 21.08 l-0.62 -0.62 c0.2 0 0.36 0 0.52 -0.04 l0.64 0.66 l-0.54 0 z M154.31650000000002 20.86 l-0.52 -0.54 c0.22 0.06 0.46 0.08 0.68 0.1 l0.58 0.6 c-0.24 -0.04 -0.48 -0.1 -0.74 -0.16 z M153.39650000000003 20.48 c-0.3 -0.16 -0.58 -0.36 -0.82 -0.58 c0.12 0.08 0.28 0.16 0.42 0.2 z M157.05650000000003 11 l0.2 -0.12 l0.7 0.68 l-0.1 0.06 c-0.08 0.06 -0.1 0.08 -0.2 -0.02 z"/></g>
			</g>
		</svg>
	